<?xml version="1.0" encoding="utf-8"?>
<!-- Generator: Adobe Illustrator 22.1.0, SVG Export Plug-In . SVG Version: 6.00 Build 0)  -->
<svg version="1.1" id="Layer_1" xmlns="http://www.w3.org/2000/svg" xmlns:xlink="http://www.w3.org/1999/xlink" x="0px" y="0px"
	 viewBox="0 0 2930 728" style="enable-background:new 0 0 2930 728;" xml:space="preserve">
<style type="text/css">
	.st0{fill:#FFFFFF;}
</style>
<g>
	<polygon class="st0" points="2006.4,463.8 2006.4,15.8 1955.1,15.8 1955.1,463.8 1955.1,495 2006.4,495 2152.6,495 2152.6,463.8 	
		"/>
	<polygon class="st0" points="2903.1,15.5 2872.7,15.5 2872.7,427 2555.8,15.5 2516.1,15.5 2516.4,15.8 2504.5,15.8 2504.5,495 
		2555.8,495 2555.8,67.1 2903.1,518.1 	"/>
	<path class="st0" d="M805,6.5c-138.1,0-250.1,112-250.1,250.1c0,138.1,112,250.1,250.1,250.1c138.1,0,250.1-112,250.1-250.1
		C1055.1,118.5,943.1,6.5,805,6.5z M805,478.6c-70.8,0-133.9-33.3-174.5-85.1V119.7C671.1,68,734.2,34.6,805,34.6
		c122.4,0,222,99.6,222,222C1027,379,927.4,478.6,805,478.6z"/>
	<path class="st0" d="M1332.3,6.5c-138.1,0-250.1,112-250.1,250.1c0,138.1,112,250.1,250.1,250.1c138.1,0,250.1-112,250.1-250.1
		C1582.4,118.5,1470.5,6.5,1332.3,6.5z M1332.3,478.6c-70.8,0-133.9-33.3-174.5-85V119.7c40.7-51.7,103.8-85,174.5-85
		c122.4,0,222,99.6,222,222C1554.3,379,1454.7,478.6,1332.3,478.6z"/>
	<polygon class="st0" points="1922.4,496.1 1669.7,203 1849,13.8 1803.7,13.8 1668.5,158.6 1668.5,15.8 1617.2,15.8 1617.2,495 
		1668.5,495 1668.5,249.5 1879.3,496.6 	"/>
	<polygon class="st0" points="2448.3,13.8 2414.2,13.8 2270.3,332.4 2133.8,15.8 2082.5,15.8 2289.4,495.6 2340.7,495.6 2287,371 	
		"/>
	<g>
		<path class="st0" d="M549.9,659.4c8.1-4.7,12.2-13.1,12.2-24.9c0-17.6-12-28.6-31.3-28.6h-28.3v113.9h29.2
			c25.9,0,35.1-16.9,35.1-31.4C566.9,670,558.1,662.8,549.9,659.4z M516,667.2h15.6c13.4,0,21.8,7.6,21.8,19.9
			c0,18.5-14.8,20-28.6,20H516V667.2z M528.7,654.5H516v-35.9h10.3c10.8,0,22.3,1.3,22.3,16.4C548.6,647.7,541.7,654.5,528.7,654.5z
			"/>
		<polygon class="st0" points="727.8,666.5 765.3,666.5 765.3,653.8 727.8,653.8 727.8,618.6 767.2,618.6 767.2,605.9 714.4,605.9 
			714.4,719.8 768.5,719.8 768.5,707.1 727.8,707.1 		"/>
		<path class="st0" d="M937.1,605.9l-36.1,113.9h13.5l11.2-35.5h38.3l11.6,35.5H989l-36.8-113.9H937.1z M959.9,671.5h-30.2
			l14.4-49.7L959.9,671.5z"/>
		<path class="st0" d="M1186.8,681.5c0,10.1,0,27-23.4,27c-19.2,0-21.8-13.7-21.8-27v-75.6h-13.5v80c0,8.4,2.5,35.6,35.3,35.6
			c23.8,0,36.9-12.6,36.9-35.6v-80h-13.5V681.5z"/>
		<polygon class="st0" points="1338.5,618.6 1364.7,618.6 1364.7,719.8 1378.2,719.8 1378.2,618.6 1404.3,618.6 1404.3,605.9 
			1338.5,605.9 		"/>
		<polygon class="st0" points="1569.7,653.9 1543.3,605.9 1528.3,605.9 1563.1,667.9 1563.1,719.8 1576.6,719.8 1576.6,668 
			1611.8,605.9 1596.8,605.9 		"/>
		<path class="st0" d="M1964.3,659.4c8.1-4.7,12.2-13.1,12.2-24.9c0-17.6-12-28.6-31.3-28.6H1917v113.9h29.2
			c25.9,0,35.1-16.9,35.1-31.4C1981.3,670,1972.5,662.8,1964.3,659.4z M1930.5,667.2h15.6c13.4,0,21.8,7.6,21.8,19.9
			c0,18.5-14.8,20-28.6,20h-8.7V667.2z M1943.1,654.5h-12.7v-35.9h10.3c10.8,0,22.3,1.3,22.3,16.4
			C1963,647.7,1956.1,654.5,1943.1,654.5z"/>
		<path class="st0" d="M2166.8,605.9h-15.1l-36.2,113.9h13.5l11.2-35.5h38.3l11.6,35.5h13.5l-36.4-112.5L2166.8,605.9z
			 M2174.5,671.5h-30.2l14.4-49.7L2174.5,671.5z"/>
		<path class="st0" d="M2401.8,687.4c-2.1-10.5-3.8-19-14-23.6c14.7-5.3,17.9-17.7,17.9-27.8c0-19.7-12.9-30.2-37.2-30.2h-25.1
			v113.9h13.5V670h11.3c14.7,0,17.6,6.8,20.9,22.2l5.9,27.5h13.5L2401.8,687.4z M2357,618.6h10.6c11.5,0,24.7,2,24.7,17.5
			c0,17.6-15.6,21.3-28.6,21.3h-6.7V618.6z"/>
	</g>
	<path class="st0" d="M561.4,495.6l-184.7-117c84.7-23,146.5-95.2,146.5-177.9c0-93.2-75.8-172.9-176.3-185.6v-0.1h-51.3v480.5h51.3
		v-99.1l156.6,99.1H561.4z M495.7,200.8c0,78.2-63.4,143.7-148.8,155.9V44.8C432.3,57.1,495.7,122.6,495.7,200.8z"/>
	<path class="st0" d="M116.6,132.7c12.3-12.5,20-29.5,20-47.9c0-34.6-25.8-64.2-59.9-68.8l-1.2-0.1c-0.4,0-0.9,0.1-1.3,0.2v-0.1
		H22.9V495h51.3c103.1-9.6,183.6-90.3,183.6-184.6C257.7,228.5,199,157.3,116.6,132.7z M113.7,84.7c0,21.9-16.9,40.3-39.6,43.6V41.1
		C96.8,44.4,113.7,62.8,113.7,84.7z M74.2,467.5V153.4c89.1,9.4,156.1,76.6,156.1,157C230.3,390.8,163.3,458.1,74.2,467.5z"/>
</g>
</svg>
