<svg enable-background="new 0 0 2930 728" viewBox="0 0 2930 728" xmlns="http://www.w3.org/2000/svg"><g fill="#fff"><path d="m2006.4 463.8v-448h-51.3v448 31.2h51.3 146.2v-31.2z"/><path d="m2903.1 15.5h-30.4v411.5l-316.9-411.5h-39.7l.3.3h-11.9v479.2h51.3v-427.9l347.3 451z"/><path d="m805 6.5c-138.1 0-250.1 112-250.1 250.1s112 250.1 250.1 250.1 250.1-112 250.1-250.1-112-250.1-250.1-250.1zm0 472.1c-70.8 0-133.9-33.3-174.5-85.1v-273.8c40.6-51.7 103.7-85.1 174.5-85.1 122.4 0 222 99.6 222 222s-99.6 222-222 222z"/><path d="m1332.3 6.5c-138.1 0-250.1 112-250.1 250.1s112 250.1 250.1 250.1 250.1-112 250.1-250.1-111.9-250.1-250.1-250.1zm0 472.1c-70.8 0-133.9-33.3-174.5-85v-273.9c40.7-51.7 103.8-85 174.5-85 122.4 0 222 99.6 222 222 0 122.3-99.6 221.9-222 221.9z"/><path d="m1922.4 496.1-252.7-293.1 179.3-189.2h-45.3l-135.2 144.8v-142.8h-51.3v479.2h51.3v-245.5l210.8 247.1z"/><path d="m2448.3 13.8h-34.1l-143.9 318.6-136.5-316.6h-51.3l206.9 479.8h51.3l-53.7-124.6z"/><path d="m549.9 659.4c8.1-4.7 12.2-13.1 12.2-24.9 0-17.6-12-28.6-31.3-28.6h-28.3v113.9h29.2c25.9 0 35.1-16.9 35.1-31.4.1-18.4-8.7-25.6-16.9-29zm-33.9 7.8h15.6c13.4 0 21.8 7.6 21.8 19.9 0 18.5-14.8 20-28.6 20h-8.8zm12.7-12.7h-12.7v-35.9h10.3c10.8 0 22.3 1.3 22.3 16.4 0 12.7-6.9 19.5-19.9 19.5z"/><path d="m727.8 666.5h37.5v-12.7h-37.5v-35.2h39.4v-12.7h-52.8v113.9h54.1v-12.7h-40.7z"/><path d="m937.1 605.9-36.1 113.9h13.5l11.2-35.5h38.3l11.6 35.5h13.4l-36.8-113.9zm22.8 65.6h-30.2l14.4-49.7z"/><path d="m1186.8 681.5c0 10.1 0 27-23.4 27-19.2 0-21.8-13.7-21.8-27v-75.6h-13.5v80c0 8.4 2.5 35.6 35.3 35.6 23.8 0 36.9-12.6 36.9-35.6v-80h-13.5z"/><path d="m1338.5 618.6h26.2v101.2h13.5v-101.2h26.1v-12.7h-65.8z"/><path d="m1569.7 653.9-26.4-48h-15l34.8 62v51.9h13.5v-51.8l35.2-62.1h-15z"/><path d="m1964.3 659.4c8.1-4.7 12.2-13.1 12.2-24.9 0-17.6-12-28.6-31.3-28.6h-28.2v113.9h29.2c25.9 0 35.1-16.9 35.1-31.4 0-18.4-8.8-25.6-17-29zm-33.8 7.8h15.6c13.4 0 21.8 7.6 21.8 19.9 0 18.5-14.8 20-28.6 20h-8.7v-39.9zm12.6-12.7h-12.7v-35.9h10.3c10.8 0 22.3 1.3 22.3 16.4 0 12.7-6.9 19.5-19.9 19.5z"/><path d="m2166.8 605.9h-15.1l-36.2 113.9h13.5l11.2-35.5h38.3l11.6 35.5h13.5l-36.4-112.5zm7.7 65.6h-30.2l14.4-49.7z"/><path d="m2401.8 687.4c-2.1-10.5-3.8-19-14-23.6 14.7-5.3 17.9-17.7 17.9-27.8 0-19.7-12.9-30.2-37.2-30.2h-25.1v113.9h13.5v-49.7h11.3c14.7 0 17.6 6.8 20.9 22.2l5.9 27.5h13.5zm-44.8-68.8h10.6c11.5 0 24.7 2 24.7 17.5 0 17.6-15.6 21.3-28.6 21.3h-6.7z"/><path d="m561.4 495.6-184.7-117c84.7-23 146.5-95.2 146.5-177.9 0-93.2-75.8-172.9-176.3-185.6v-.1h-51.3v480.5h51.3v-99.1l156.6 99.1h57.9zm-65.7-294.8c0 78.2-63.4 143.7-148.8 155.9v-311.9c85.4 12.3 148.8 77.8 148.8 156z"/><path d="m116.6 132.7c12.3-12.5 20-29.5 20-47.9 0-34.6-25.8-64.2-59.9-68.8l-1.2-.1c-.4 0-.9.1-1.3.2v-.1h-51.3v479h51.3c103.1-9.6 183.6-90.3 183.6-184.6-.1-81.9-58.8-153.1-141.2-177.7zm-2.9-48c0 21.9-16.9 40.3-39.6 43.6v-87.2c22.7 3.3 39.6 21.7 39.6 43.6zm-39.5 382.8v-314.1c89.1 9.4 156.1 76.6 156.1 157s-67 147.7-156.1 157.1z"/></g></svg>